<?xml version="1.0" encoding="UTF-8" standalone="no"?>
<!DOCTYPE svg PUBLIC "-//W3C//DTD SVG 1.1//EN"
 "http://www.w3.org/Graphics/SVG/1.1/DTD/svg11.dtd">
<!-- Generated by graphviz version 2.28.0 (20121123.1523)
 -->
<!-- Title: G Pages: 1 -->
<svg width="1120pt" height="878pt"
 viewBox="0.00 0.00 1120.00 878.00" xmlns="http://www.w3.org/2000/svg" xmlns:xlink="http://www.w3.org/1999/xlink">
<g id="graph1" class="graph" transform="scale(1 1) rotate(0) translate(4 874)">
<title>G</title>
<polygon fill="white" stroke="white" points="-4,5 -4,-874 1117,-874 1117,5 -4,5"/>
<g id="graph2" class="cluster"><title>cluster_eu</title>
<polyline fill="none" stroke="gray" points="20,-44 1092,-44 "/>
<path fill="none" stroke="gray" d="M1092,-44C1098,-44 1104,-50 1104,-56"/>
<polyline fill="none" stroke="gray" points="1104,-56 1104,-850 "/>
<path fill="none" stroke="gray" d="M1104,-850C1104,-856 1098,-862 1092,-862"/>
<polyline fill="none" stroke="gray" points="1092,-862 20,-862 "/>
<path fill="none" stroke="gray" d="M20,-862C14,-862 8,-856 8,-850"/>
<polyline fill="none" stroke="gray" points="8,-850 8,-56 "/>
<path fill="none" stroke="gray" d="M8,-56C8,-50 14,-44 20,-44"/>
<text text-anchor="middle" x="556" y="-849.2" font-family="Times,serif" font-size="11.00" fill="gray">eu</text>
</g>
<g id="graph3" class="cluster"><title>cluster_eu\maxschuster</title>
<polyline fill="none" stroke="gray" points="28,-52 1084,-52 "/>
<path fill="none" stroke="gray" d="M1084,-52C1090,-52 1096,-58 1096,-64"/>
<polyline fill="none" stroke="gray" points="1096,-64 1096,-822 "/>
<path fill="none" stroke="gray" d="M1096,-822C1096,-828 1090,-834 1084,-834"/>
<polyline fill="none" stroke="gray" points="1084,-834 28,-834 "/>
<path fill="none" stroke="gray" d="M28,-834C22,-834 16,-828 16,-822"/>
<polyline fill="none" stroke="gray" points="16,-822 16,-64 "/>
<path fill="none" stroke="gray" d="M16,-64C16,-58 22,-52 28,-52"/>
<text text-anchor="middle" x="556" y="-821.2" font-family="Times,serif" font-size="11.00" fill="gray">maxschuster</text>
</g>
<g id="graph4" class="cluster"><title>cluster_eu\maxschuster\sevenzip</title>
<polyline fill="none" stroke="gray" points="36,-60 1076,-60 "/>
<path fill="none" stroke="gray" d="M1076,-60C1082,-60 1088,-66 1088,-72"/>
<polyline fill="none" stroke="gray" points="1088,-72 1088,-794 "/>
<path fill="none" stroke="gray" d="M1088,-794C1088,-800 1082,-806 1076,-806"/>
<polyline fill="none" stroke="gray" points="1076,-806 36,-806 "/>
<path fill="none" stroke="gray" d="M36,-806C30,-806 24,-800 24,-794"/>
<polyline fill="none" stroke="gray" points="24,-794 24,-72 "/>
<path fill="none" stroke="gray" d="M24,-72C24,-66 30,-60 36,-60"/>
<text text-anchor="middle" x="556" y="-793.2" font-family="Times,serif" font-size="11.00" fill="gray">sevenzip</text>
</g>
<g id="graph5" class="cluster"><title>cluster_eu\maxschuster\sevenzip\cmd</title>
<polyline fill="none" stroke="gray" points="44,-328 1068,-328 "/>
<path fill="none" stroke="gray" d="M1068,-328C1074,-328 1080,-334 1080,-340"/>
<polyline fill="none" stroke="gray" points="1080,-340 1080,-766 "/>
<path fill="none" stroke="gray" d="M1080,-766C1080,-772 1074,-778 1068,-778"/>
<polyline fill="none" stroke="gray" points="1068,-778 44,-778 "/>
<path fill="none" stroke="gray" d="M44,-778C38,-778 32,-772 32,-766"/>
<polyline fill="none" stroke="gray" points="32,-766 32,-340 "/>
<path fill="none" stroke="gray" d="M32,-340C32,-334 38,-328 44,-328"/>
<text text-anchor="middle" x="556" y="-765.2" font-family="Times,serif" font-size="11.00" fill="gray">cmd</text>
</g>
<g id="graph6" class="cluster"><title>cluster_eu\maxschuster\sevenzip\exception</title>
<polyline fill="none" stroke="gray" points="941,-114 1065,-114 "/>
<path fill="none" stroke="gray" d="M1065,-114C1071,-114 1077,-120 1077,-126"/>
<polyline fill="none" stroke="gray" points="1077,-126 1077,-174 "/>
<path fill="none" stroke="gray" d="M1077,-174C1077,-180 1071,-186 1065,-186"/>
<polyline fill="none" stroke="gray" points="1065,-186 941,-186 "/>
<path fill="none" stroke="gray" d="M941,-186C935,-186 929,-180 929,-174"/>
<polyline fill="none" stroke="gray" points="929,-174 929,-126 "/>
<path fill="none" stroke="gray" d="M929,-126C929,-120 935,-114 941,-114"/>
<text text-anchor="middle" x="1003" y="-173.2" font-family="Times,serif" font-size="11.00" fill="gray">exception</text>
</g>
<g id="graph7" class="cluster"><title>cluster_eu\maxschuster\sevenzip\result</title>
<polyline fill="none" stroke="gray" points="726,-194 1055,-194 "/>
<path fill="none" stroke="gray" d="M1055,-194C1061,-194 1067,-200 1067,-206"/>
<polyline fill="none" stroke="gray" points="1067,-206 1067,-308 "/>
<path fill="none" stroke="gray" d="M1067,-308C1067,-314 1061,-320 1055,-320"/>
<polyline fill="none" stroke="gray" points="1055,-320 726,-320 "/>
<path fill="none" stroke="gray" d="M726,-320C720,-320 714,-314 714,-308"/>
<polyline fill="none" stroke="gray" points="714,-308 714,-206 "/>
<path fill="none" stroke="gray" d="M714,-206C714,-200 720,-194 726,-194"/>
<text text-anchor="middle" x="890.5" y="-307.2" font-family="Times,serif" font-size="11.00" fill="gray">result</text>
</g>
<!-- \\eu\\maxschuster\\sevenzip\\cmd\\AddFile -->
<g id="node5" class="node"><title>\\eu\\maxschuster\\sevenzip\\cmd\\AddFile</title>
<a xlink:href="cmd.AddFile.html" xlink:title="AddFile" target="_parent">
<polygon fill="none" stroke="black" points="1035,-750 971,-750 971,-714 1035,-714 1035,-750"/>
<text text-anchor="middle" x="1003" y="-729.2" font-family="Courier,monospace" font-size="11.00">AddFile</text>
</a>
</g>
<!-- \\eu\\maxschuster\\sevenzip\\cmd\\PasswordProtectedCommand -->
<g id="node13" class="node"><title>\\eu\\maxschuster\\sevenzip\\cmd\\PasswordProtectedCommand</title>
<a xlink:href="cmd.PasswordProtectedCommand.html" xlink:title="«abstract»&lt;br/&gt;PasswordProtectedCommand" target="_parent">
<polygon fill="none" stroke="black" points="862,-561 682,-561 682,-525 862,-525 862,-561"/>
<text text-anchor="start" x="738" y="-546.7" font-family="Courier,monospace" font-size="11.00">«abstract»</text>
<text text-anchor="start" x="690.5" y="-535.7" font-family="Courier,monospace" font-size="11.00">PasswordProtectedCommand</text>
</a>
</g>
<!-- \\eu\\maxschuster\\sevenzip\\cmd\\AddFile&#45;&gt;\\eu\\maxschuster\\sevenzip\\cmd\\PasswordProtectedCommand -->
<g id="edge18" class="edge"><title>\\eu\\maxschuster\\sevenzip\\cmd\\AddFile&#45;&gt;\\eu\\maxschuster\\sevenzip\\cmd\\PasswordProtectedCommand</title>
<path fill="none" stroke="black" d="M970.714,-723.846C957.221,-719.488 941.665,-713.285 929,-705 871.465,-667.366 819.276,-604.863 792.297,-569.505"/>
<polygon fill="none" stroke="black" points="794.805,-567.016 785.994,-561.133 789.212,-571.227 794.805,-567.016"/>
</g>
<!-- \\eu\\maxschuster\\sevenzip\\cmd\\AddFileFromString -->
<g id="node6" class="node"><title>\\eu\\maxschuster\\sevenzip\\cmd\\AddFileFromString</title>
<a xlink:href="cmd.AddFileFromString.html" xlink:title="AddFileFromString" target="_parent">
<polygon fill="none" stroke="black" points="1068.5,-696 937.5,-696 937.5,-660 1068.5,-660 1068.5,-696"/>
<text text-anchor="middle" x="1003" y="-675.2" font-family="Courier,monospace" font-size="11.00">AddFileFromString</text>
</a>
</g>
<!-- \\eu\\maxschuster\\sevenzip\\cmd\\AddFileFromString&#45;&gt;\\eu\\maxschuster\\sevenzip\\cmd\\PasswordProtectedCommand -->
<g id="edge20" class="edge"><title>\\eu\\maxschuster\\sevenzip\\cmd\\AddFileFromString&#45;&gt;\\eu\\maxschuster\\sevenzip\\cmd\\PasswordProtectedCommand</title>
<path fill="none" stroke="black" d="M948.297,-659.909C941.688,-657.167 935.113,-654.182 929,-651 882.661,-626.881 833.867,-591.198 803.443,-567.535"/>
<polygon fill="none" stroke="black" points="805.395,-564.617 795.367,-561.199 801.074,-570.125 805.395,-564.617"/>
</g>
<!-- \\eu\\maxschuster\\sevenzip\\cmd\\BaseArchiveAccessCommand -->
<g id="node7" class="node"><title>\\eu\\maxschuster\\sevenzip\\cmd\\BaseArchiveAccessCommand</title>
<a xlink:href="cmd.BaseArchiveAccessCommand.html" xlink:title="«abstract»&lt;br/&gt;BaseArchiveAccessCommand" target="_parent">
<polygon fill="none" stroke="black" points="610,-561 430,-561 430,-525 610,-525 610,-561"/>
<text text-anchor="start" x="486" y="-546.7" font-family="Courier,monospace" font-size="11.00">«abstract»</text>
<text text-anchor="start" x="438.5" y="-535.7" font-family="Courier,monospace" font-size="11.00">BaseArchiveAccessCommand</text>
</a>
</g>
<!-- \\eu\\maxschuster\\sevenzip\\cmd\\SevenZipCommand -->
<g id="node15" class="node"><title>\\eu\\maxschuster\\sevenzip\\cmd\\SevenZipCommand</title>
<a xlink:href="cmd.SevenZipCommand.html" xlink:title="«abstract»&lt;br/&gt;SevenZipCommand" target="_parent">
<polygon fill="none" stroke="black" points="357.5,-561 238.5,-561 238.5,-525 357.5,-525 357.5,-561"/>
<text text-anchor="start" x="264" y="-546.7" font-family="Courier,monospace" font-size="11.00">«abstract»</text>
<text text-anchor="start" x="247" y="-535.7" font-family="Courier,monospace" font-size="11.00">SevenZipCommand</text>
</a>
</g>
<!-- \\eu\\maxschuster\\sevenzip\\cmd\\BaseArchiveAccessCommand&#45;&gt;\\eu\\maxschuster\\sevenzip\\cmd\\SevenZipCommand -->
<g id="edge22" class="edge"><title>\\eu\\maxschuster\\sevenzip\\cmd\\BaseArchiveAccessCommand&#45;&gt;\\eu\\maxschuster\\sevenzip\\cmd\\SevenZipCommand</title>
<path fill="none" stroke="black" d="M429.835,-543C409.143,-543 387.431,-543 367.773,-543"/>
<polygon fill="none" stroke="black" points="367.696,-539.5 357.696,-543 367.696,-546.5 367.696,-539.5"/>
</g>
<!-- \\eu\\maxschuster\\sevenzip\\cmd\\CommandInterface -->
<g id="node8" class="node"><title>\\eu\\maxschuster\\sevenzip\\cmd\\CommandInterface</title>
<a xlink:href="cmd.CommandInterface.html" xlink:title="CommandInterface" target="_parent">
<polygon fill="none" stroke="black" points="165.5,-561 40.5,-561 40.5,-525 165.5,-525 165.5,-561"/>
<text text-anchor="middle" x="103" y="-540.2" font-family="Courier,monospace" font-size="11.00">CommandInterface</text>
</a>
</g>
<!-- \\eu\\maxschuster\\sevenzip\\cmd\\CreateEmptyArchive -->
<g id="node9" class="node"><title>\\eu\\maxschuster\\sevenzip\\cmd\\CreateEmptyArchive</title>
<a xlink:href="cmd.CreateEmptyArchive.html" xlink:title="CreateEmptyArchive" target="_parent">
<polygon fill="none" stroke="black" points="1072,-642 934,-642 934,-606 1072,-606 1072,-642"/>
<text text-anchor="middle" x="1003" y="-621.2" font-family="Courier,monospace" font-size="11.00">CreateEmptyArchive</text>
</a>
</g>
<!-- \\eu\\maxschuster\\sevenzip\\cmd\\CreateEmptyArchive&#45;&gt;\\eu\\maxschuster\\sevenzip\\cmd\\PasswordProtectedCommand -->
<g id="edge24" class="edge"><title>\\eu\\maxschuster\\sevenzip\\cmd\\CreateEmptyArchive&#45;&gt;\\eu\\maxschuster\\sevenzip\\cmd\\PasswordProtectedCommand</title>
<path fill="none" stroke="black" d="M950.893,-605.923C916.164,-593.639 870.074,-577.336 833.51,-564.403"/>
<polygon fill="none" stroke="black" points="834.546,-561.057 823.951,-561.022 832.211,-567.656 834.546,-561.057"/>
</g>
<!-- \\eu\\maxschuster\\sevenzip\\cmd\\ExtractFiles -->
<g id="node10" class="node"><title>\\eu\\maxschuster\\sevenzip\\cmd\\ExtractFiles</title>
<a xlink:href="cmd.ExtractFiles.html" xlink:title="ExtractFiles" target="_parent">
<polygon fill="none" stroke="black" points="1052,-588 954,-588 954,-552 1052,-552 1052,-588"/>
<text text-anchor="middle" x="1003" y="-567.2" font-family="Courier,monospace" font-size="11.00">ExtractFiles</text>
</a>
</g>
<!-- \\eu\\maxschuster\\sevenzip\\cmd\\ExtractFiles&#45;&gt;\\eu\\maxschuster\\sevenzip\\cmd\\PasswordProtectedCommand -->
<g id="edge26" class="edge"><title>\\eu\\maxschuster\\sevenzip\\cmd\\ExtractFiles&#45;&gt;\\eu\\maxschuster\\sevenzip\\cmd\\PasswordProtectedCommand</title>
<path fill="none" stroke="black" d="M953.994,-564.34C930.178,-561.532 900.489,-558.031 872.088,-554.683"/>
<polygon fill="none" stroke="black" points="872.448,-551.201 862.107,-553.506 871.629,-558.153 872.448,-551.201"/>
</g>
<!-- \\eu\\maxschuster\\sevenzip\\cmd\\GetFromName -->
<g id="node11" class="node"><title>\\eu\\maxschuster\\sevenzip\\cmd\\GetFromName</title>
<a xlink:href="cmd.GetFromName.html" xlink:title="GetFromName" target="_parent">
<polygon fill="none" stroke="black" points="1048.5,-534 957.5,-534 957.5,-498 1048.5,-498 1048.5,-534"/>
<text text-anchor="middle" x="1003" y="-513.2" font-family="Courier,monospace" font-size="11.00">GetFromName</text>
</a>
</g>
<!-- \\eu\\maxschuster\\sevenzip\\cmd\\GetFromName&#45;&gt;\\eu\\maxschuster\\sevenzip\\cmd\\PasswordProtectedCommand -->
<g id="edge28" class="edge"><title>\\eu\\maxschuster\\sevenzip\\cmd\\GetFromName&#45;&gt;\\eu\\maxschuster\\sevenzip\\cmd\\PasswordProtectedCommand</title>
<path fill="none" stroke="black" d="M957.303,-521.27C932.979,-524.138 901.858,-527.807 872.143,-531.311"/>
<polygon fill="none" stroke="black" points="871.653,-527.844 862.132,-532.491 872.473,-534.796 871.653,-527.844"/>
</g>
<!-- \\eu\\maxschuster\\sevenzip\\cmd\\ListArchive -->
<g id="node12" class="node"><title>\\eu\\maxschuster\\sevenzip\\cmd\\ListArchive</title>
<a xlink:href="cmd.ListArchive.html" xlink:title="ListArchive" target="_parent">
<polygon fill="none" stroke="black" points="1048.5,-480 957.5,-480 957.5,-444 1048.5,-444 1048.5,-480"/>
<text text-anchor="middle" x="1003" y="-459.2" font-family="Courier,monospace" font-size="11.00">ListArchive</text>
</a>
</g>
<!-- \\eu\\maxschuster\\sevenzip\\cmd\\ListArchive&#45;&gt;\\eu\\maxschuster\\sevenzip\\cmd\\PasswordProtectedCommand -->
<g id="edge30" class="edge"><title>\\eu\\maxschuster\\sevenzip\\cmd\\ListArchive&#45;&gt;\\eu\\maxschuster\\sevenzip\\cmd\\PasswordProtectedCommand</title>
<path fill="none" stroke="black" d="M957.303,-477.81C922.025,-490.288 872.451,-507.823 833.602,-521.564"/>
<polygon fill="none" stroke="black" points="832.232,-518.336 823.971,-524.971 834.566,-524.936 832.232,-518.336"/>
</g>
<!-- \\eu\\maxschuster\\sevenzip\\cmd\\PasswordProtectedCommand&#45;&gt;\\eu\\maxschuster\\sevenzip\\cmd\\BaseArchiveAccessCommand -->
<g id="edge32" class="edge"><title>\\eu\\maxschuster\\sevenzip\\cmd\\PasswordProtectedCommand&#45;&gt;\\eu\\maxschuster\\sevenzip\\cmd\\BaseArchiveAccessCommand</title>
<path fill="none" stroke="black" d="M681.803,-543C661.89,-543 640.652,-543 620.357,-543"/>
<polygon fill="none" stroke="black" points="620.163,-539.5 610.163,-543 620.162,-546.5 620.163,-539.5"/>
</g>
<!-- \\eu\\maxschuster\\sevenzip\\cmd\\Rename -->
<g id="node14" class="node"><title>\\eu\\maxschuster\\sevenzip\\cmd\\Rename</title>
<a xlink:href="cmd.Rename.html" xlink:title="Rename" target="_parent">
<polygon fill="none" stroke="black" points="1031.5,-426 974.5,-426 974.5,-390 1031.5,-390 1031.5,-426"/>
<text text-anchor="middle" x="1003" y="-405.2" font-family="Courier,monospace" font-size="11.00">Rename</text>
</a>
</g>
<!-- \\eu\\maxschuster\\sevenzip\\cmd\\Rename&#45;&gt;\\eu\\maxschuster\\sevenzip\\cmd\\PasswordProtectedCommand -->
<g id="edge34" class="edge"><title>\\eu\\maxschuster\\sevenzip\\cmd\\Rename&#45;&gt;\\eu\\maxschuster\\sevenzip\\cmd\\PasswordProtectedCommand</title>
<path fill="none" stroke="black" d="M974.261,-416.425C960.323,-421.113 943.384,-427.514 929,-435 882.661,-459.119 833.867,-494.802 803.443,-518.465"/>
<polygon fill="none" stroke="black" points="801.074,-515.875 795.367,-524.801 805.395,-521.383 801.074,-515.875"/>
</g>
<!-- \\eu\\maxschuster\\sevenzip\\cmd\\SevenZipCommand&#45;&gt;\\eu\\maxschuster\\sevenzip\\cmd\\CommandInterface -->
<g id="edge44" class="edge"><title>\\eu\\maxschuster\\sevenzip\\cmd\\SevenZipCommand&#45;&gt;\\eu\\maxschuster\\sevenzip\\cmd\\CommandInterface</title>
<path fill="none" stroke="black" stroke-dasharray="1,5" d="M238.308,-543C218.669,-543 196.549,-543 176.013,-543"/>
<polygon fill="none" stroke="black" points="175.759,-539.5 165.759,-543 175.759,-546.5 175.759,-539.5"/>
</g>
<!-- \\eu\\maxschuster\\sevenzip\\cmd\\TestArchive -->
<g id="node16" class="node"><title>\\eu\\maxschuster\\sevenzip\\cmd\\TestArchive</title>
<a xlink:href="cmd.TestArchive.html" xlink:title="TestArchive" target="_parent">
<polygon fill="none" stroke="black" points="1048.5,-372 957.5,-372 957.5,-336 1048.5,-336 1048.5,-372"/>
<text text-anchor="middle" x="1003" y="-351.2" font-family="Courier,monospace" font-size="11.00">TestArchive</text>
</a>
</g>
<!-- \\eu\\maxschuster\\sevenzip\\cmd\\TestArchive&#45;&gt;\\eu\\maxschuster\\sevenzip\\cmd\\PasswordProtectedCommand -->
<g id="edge36" class="edge"><title>\\eu\\maxschuster\\sevenzip\\cmd\\TestArchive&#45;&gt;\\eu\\maxschuster\\sevenzip\\cmd\\PasswordProtectedCommand</title>
<path fill="none" stroke="black" d="M957.228,-366.936C947.52,-370.715 937.594,-375.378 929,-381 871.465,-418.634 819.276,-481.137 792.297,-516.495"/>
<polygon fill="none" stroke="black" points="789.212,-514.773 785.994,-524.867 794.805,-518.984 789.212,-514.773"/>
</g>
<!-- \\eu\\maxschuster\\sevenzip\\exception\\SevenZipException -->
<g id="node18" class="node"><title>\\eu\\maxschuster\\sevenzip\\exception\\SevenZipException</title>
<a xlink:href="exception.SevenZipException.html" xlink:title="SevenZipException" target="_parent">
<polygon fill="none" stroke="black" points="1068.5,-158 937.5,-158 937.5,-122 1068.5,-122 1068.5,-158"/>
<text text-anchor="middle" x="1003" y="-137.2" font-family="Courier,monospace" font-size="11.00">SevenZipException</text>
</a>
</g>
<!-- \\Exception -->
<g id="node45" class="node"><title>\\Exception</title>
<ellipse fill="none" stroke="black" cx="772" cy="-18" rx="51.1914" ry="18"/>
<text text-anchor="middle" x="772" y="-14.3" font-family="Times,serif" font-size="14.00" fill="gray">\Exception</text>
</g>
<!-- \\eu\\maxschuster\\sevenzip\\exception\\SevenZipException&#45;&gt;\\Exception -->
<g id="edge38" class="edge"><title>\\eu\\maxschuster\\sevenzip\\exception\\SevenZipException&#45;&gt;\\Exception</title>
<path fill="none" stroke="black" d="M938.295,-121.968C935.121,-120.707 932.006,-119.384 929,-118 882.188,-96.4531 832.879,-62.7173 802.527,-40.4831"/>
<polygon fill="none" stroke="black" points="804.234,-37.3921 794.114,-34.2577 800.07,-43.0193 804.234,-37.3921"/>
</g>
<!-- \\eu\\maxschuster\\sevenzip\\result\\SevenZipFile -->
<g id="node20" class="node"><title>\\eu\\maxschuster\\sevenzip\\result\\SevenZipFile</title>
<a xlink:href="result.SevenZipFile.html" xlink:title="SevenZipFile" target="_parent">
<polygon fill="none" stroke="black" points="1052,-292 954,-292 954,-256 1052,-256 1052,-292"/>
<text text-anchor="middle" x="1003" y="-271.2" font-family="Courier,monospace" font-size="11.00">SevenZipFile</text>
</a>
</g>
<!-- \\eu\\maxschuster\\sevenzip\\result\\SevenZipItem -->
<g id="node22" class="node"><title>\\eu\\maxschuster\\sevenzip\\result\\SevenZipItem</title>
<a xlink:href="result.SevenZipItem.html" xlink:title="«abstract»&lt;br/&gt;SevenZipItem" target="_parent">
<polygon fill="none" stroke="black" points="821.5,-265 722.5,-265 722.5,-229 821.5,-229 821.5,-265"/>
<text text-anchor="start" x="738" y="-250.7" font-family="Courier,monospace" font-size="11.00">«abstract»</text>
<text text-anchor="start" x="731" y="-239.7" font-family="Courier,monospace" font-size="11.00">SevenZipItem</text>
</a>
</g>
<!-- \\eu\\maxschuster\\sevenzip\\result\\SevenZipFile&#45;&gt;\\eu\\maxschuster\\sevenzip\\result\\SevenZipItem -->
<g id="edge40" class="edge"><title>\\eu\\maxschuster\\sevenzip\\result\\SevenZipFile&#45;&gt;\\eu\\maxschuster\\sevenzip\\result\\SevenZipItem</title>
<path fill="none" stroke="black" d="M953.994,-268.34C918.509,-264.156 869.985,-258.435 832.111,-253.969"/>
<polygon fill="none" stroke="black" points="832.072,-250.441 821.731,-252.746 831.253,-257.393 832.072,-250.441"/>
</g>
<!-- \\eu\\maxschuster\\sevenzip\\result\\SevenZipFolder -->
<g id="node21" class="node"><title>\\eu\\maxschuster\\sevenzip\\result\\SevenZipFolder</title>
<a xlink:href="result.SevenZipFolder.html" xlink:title="SevenZipFolder" target="_parent">
<polygon fill="none" stroke="black" points="1058.5,-238 947.5,-238 947.5,-202 1058.5,-202 1058.5,-238"/>
<text text-anchor="middle" x="1003" y="-217.2" font-family="Courier,monospace" font-size="11.00">SevenZipFolder</text>
</a>
</g>
<!-- \\eu\\maxschuster\\sevenzip\\result\\SevenZipFolder&#45;&gt;\\eu\\maxschuster\\sevenzip\\result\\SevenZipItem -->
<g id="edge42" class="edge"><title>\\eu\\maxschuster\\sevenzip\\result\\SevenZipFolder&#45;&gt;\\eu\\maxschuster\\sevenzip\\result\\SevenZipItem</title>
<path fill="none" stroke="black" d="M947.44,-226.433C912.642,-230.536 867.559,-235.851 831.942,-240.051"/>
<polygon fill="none" stroke="black" points="831.212,-236.612 821.69,-241.259 832.031,-243.564 831.212,-236.612"/>
</g>
<!-- \\eu\\maxschuster\\sevenzip\\SevenZipArchive -->
<g id="node23" class="node"><title>\\eu\\maxschuster\\sevenzip\\SevenZipArchive</title>
<a xlink:href="SevenZipArchive.html" xlink:title="SevenZipArchive" target="_parent">
<polygon fill="none" stroke="black" points="1062,-104 944,-104 944,-68 1062,-68 1062,-104"/>
<text text-anchor="middle" x="1003" y="-83.2" font-family="Courier,monospace" font-size="11.00">SevenZipArchive</text>
</a>
</g>
</g>
</svg>
